<?xml version="1.0" standalone="no"?><!DOCTYPE svg PUBLIC "-//W3C//DTD SVG 1.1//EN" "http://www.w3.org/Graphics/SVG/1.1/DTD/svg11.dtd"><svg t="1713101913106" class="icon" viewBox="0 0 1024 1024" version="1.1" xmlns="http://www.w3.org/2000/svg" p-id="7255" xmlns:xlink="http://www.w3.org/1999/xlink" width="200" height="200"><path d="M801.6384 124.416c-159.9744-165.888-419.3024-165.888-579.2512 0-160 165.9136-160 434.944 0 600.832L512 1024l289.6128-298.752c160-165.888 160-434.8928 0-600.832z" fill="#307CEA" p-id="7256"></path><path d="M222.3872 124.416c159.9488-165.888 419.2768-165.888 579.2512 0 157.7216 163.6352 159.9232 427.4944 6.5536 593.8688l-6.5792 6.9888L512 1024 222.3872 725.248c-160-165.888-160-434.9184 0-600.832zM764.7744 160C624.9472 14.9504 399.0528 14.9504 259.2512 159.9744 120.5504 303.7952 118.4256 536.3712 252.7488 682.8288l6.4 6.8096 252.8256 260.7872 252.7744-260.6848c138.7008-143.8464 140.8256-376.3968 6.4-522.9568l-6.4-6.8096z" fill="#599DFF" p-id="7257"></path><path d="M748.4928 586.1632v64.896H277.8368v-64.896h470.656zM673.3056 204.8v19.2s-23.04 3.84-11.52 23.04c11.52 15.3856 72.96 95.9488 157.4144 95.9488 0 0-26.9056 53.76-107.5712 57.5488v165.12H627.2v-157.4144h-30.72v157.4144h-46.1312v-157.4144h-84.4544v157.4144H419.84v-157.4144h-23.04v157.4144H316.16v-161.2288c-84.4544-7.68-111.36-61.44-111.36-61.44 84.48 0 145.92-76.8256 157.4144-95.9488 11.52-19.2-11.52-23.04-11.52-23.04V204.8h322.6112z" fill="#FFFFFF" p-id="7258"></path></svg>