<?xml version="1.0" standalone="no"?><!DOCTYPE svg PUBLIC "-//W3C//DTD SVG 1.1//EN" "http://www.w3.org/Graphics/SVG/1.1/DTD/svg11.dtd"><svg t="1712843023197" class="icon" viewBox="0 0 1024 1024" version="1.1" xmlns="http://www.w3.org/2000/svg" p-id="28530" xmlns:xlink="http://www.w3.org/1999/xlink" width="200" height="200"><path d="M977.706667 446.72c-2.133333-1.28-209.706667-132.906667-305.706667-239.786667-92.8-103.04-115.413333-165.546667-115.626667-165.973333A37.333333 37.333333 0 0 0 521.173333 15.573333a37.546667 37.546667 0 0 0-35.2 25.173334s-23.04 64-115.626666 166.186666C274.56 313.173333 45.653333 444.586667 42.666667 445.866667a37.333333 37.333333 0 0 0 18.56 69.76h164.266666v104.533333H151.466667a37.333333 37.333333 0 0 0-37.333334 37.333333v291.2a37.333333 37.333333 0 0 0 37.333334 37.333334h716.8a37.333333 37.333333 0 0 0 37.333333-37.333334V657.493333a37.546667 37.546667 0 0 0-37.333333-37.333333h-74.666667v-104.533333h164.266667a37.333333 37.333333 0 0 0 35.84-26.88 37.76 37.76 0 0 0-16-42.026667zM832 911.36H188.8V694.826667H832z m-113.066667-291.2H300.8v-104.533333h418.133333z m37.333334-179.2H193.493333c76.8-50.133333 174.293333-119.893333 233.173334-184.96a930.773333 930.773333 0 0 0 95.36-123.946667A917.333333 917.333333 0 0 0 616.533333 256a1418.666667 1418.666667 0 0 0 219.306667 184.106667z" fill="#5B5B5B" p-id="28531"></path></svg>