<?xml version="1.0" standalone="no"?><!DOCTYPE svg PUBLIC "-//W3C//DTD SVG 1.1//EN" "http://www.w3.org/Graphics/SVG/1.1/DTD/svg11.dtd"><svg t="1712841711664" class="icon" viewBox="0 0 1024 1024" version="1.1" xmlns="http://www.w3.org/2000/svg" p-id="19829" xmlns:xlink="http://www.w3.org/1999/xlink" width="200" height="200"><path d="M511.9 961.2c-60.5 0-119.1-11.9-174.4-35.2-53.4-22.6-101.3-54.9-142.4-96s-73.4-89-96-142.4c-23.4-55.3-35.2-113.9-35.2-174.4s11.9-119.1 35.2-174.4c22.6-53.4 54.9-101.3 96-142.4s89-73.4 142.4-96C392.8 77 451.4 65.2 511.9 65.2S631 77.1 686.3 100.4c53.4 22.6 101.3 54.9 142.4 96s73.4 89 96 142.4c23.4 55.3 35.2 113.9 35.2 174.4S948 632.3 924.7 687.6c-22.6 53.4-54.9 101.3-96 142.4-41.1 41.1-89 73.4-142.4 96-55.2 23.4-113.9 35.2-174.4 35.2z m0-814.3c-202 0-366.3 164.3-366.3 366.3s164.3 366.3 366.3 366.3 366.3-164.3 366.3-366.3-164.3-366.3-366.3-366.3z" p-id="19830"></path><path d="M632.1 582.7l53.4-225.9c4.9-20.6-1.7-40.8-17.2-52.7-15.5-12-36.6-13.4-55.4-3.7l-206 107.2c-18.5 9.6-31.3 28.3-33.2 48.9-0.4 1.1-0.6 2.2-0.7 3.4l-19.2 118.7-19.3 118.6c-3.3 20 15.9 34.9 34.4 26.8l110.4-47.8 110.4-47.8c1.1-0.5 2.1-1 3-1.6 19.6-6.7 34.6-23.6 39.4-44.1z m-11-218l-47.3 200.6-135.6-105.5 182.9-95.1z" p-id="19831"></path></svg>