<?xml version="1.0" standalone="no"?><!DOCTYPE svg PUBLIC "-//W3C//DTD SVG 1.1//EN" "http://www.w3.org/Graphics/SVG/1.1/DTD/svg11.dtd"><svg t="1712839026054" class="icon" viewBox="0 0 1280 1024" version="1.1" xmlns="http://www.w3.org/2000/svg" p-id="3494" xmlns:xlink="http://www.w3.org/1999/xlink" width="250" height="200"><path d="M1116.3136 166.6048h-98.304a23.552 23.552 0 0 1 0-47.104h24.2176a41.8816 41.8816 0 0 0 0-83.8656h-219.136a41.8816 41.8816 0 0 0 0 83.8144h44.9024a23.552 23.552 0 0 1 0 47.1552h-175.6672a63.6416 63.6416 0 0 0 0 127.232h423.9872a63.6416 63.6416 0 1 0 0-127.232zM488.704 869.888H409.7024a24.2176 24.2176 0 0 1 0-48.4864h24.8832a43.1104 43.1104 0 1 0 0-86.1696H124.8768a43.1104 43.1104 0 0 0 0 86.1696h130.56a24.2176 24.2176 0 0 1 0 48.4864H187.0848a65.4336 65.4336 0 0 0 0 130.816h301.568a65.4336 65.4336 0 1 0 0-130.816z" fill="#FFCB27" opacity=".26" p-id="3495"></path><path d="M314.88 219.2384l11.9808 11.9808-11.9808 12.032-12.032-12.032 12.032-11.9808z m0 57.5488l-12.032-12.032 12.032-12.032 12.032 12.032-12.032 12.032z m4.7104-28.7744l12.032-12.032 12.032 12.032-12.032 11.9808-12.032-11.9808z m-33.4848 0l11.9808-12.032 12.032 12.032-12.032 11.9808-11.9808-11.9808z" fill="#FFB000" p-id="3496"></path><path d="M1067.008 744.3968l9.8816 9.8816-9.8816 9.8816-9.8816-9.8816 9.8816-9.8816z m0 47.36l-9.8816-9.8816 9.8816-9.8816 9.8816 9.8816-9.8816 9.8816z m3.8912-23.7056l9.8816-9.8816 9.8816 9.8816-9.8816 9.8816-9.8816-9.8816z m-27.5456 0l9.8816-9.8816 9.8816 9.8816-9.8816 9.8816-9.8816-9.8816z" fill="#FF664D" p-id="3497"></path><path d="M313.1392 657.1008a57.344 57.344 0 0 0-28.928 59.392c2.3552 14.4384 10.1376 27.392 21.76 36.2496a69.8368 69.8368 0 0 0 89.3952 96.9728" fill="#FBEDD7" p-id="3498"></path><path d="M367.4112 870.2976a84.6336 84.6336 0 0 1-83.4048-70.9632 83.1488 83.1488 0 0 1 4.2496-42.9056 72.0896 72.0896 0 0 1 17.8176-112.128 14.6944 14.6944 0 1 1 14.1312 25.6512 42.7008 42.7008 0 0 0-5.2736 71.168c5.6832 4.352 7.424 12.288 3.9936 18.5856a54.528 54.528 0 0 0-5.9392 34.9184 55.296 55.296 0 0 0 76.544 41.6768 14.6432 14.6432 0 1 1 11.6736 26.88 85.504 85.504 0 0 1-33.792 7.168z" fill="#CA3A2A" p-id="3499"></path><path d="M966.8608 657.1008a57.2928 57.2928 0 0 1 7.1168 95.6416 69.8368 69.8368 0 0 1-89.3952 96.9728" fill="#FBEDD7" p-id="3500"></path><path d="M912.7424 870.2976a84.992 84.992 0 0 1-33.9456-7.168 14.6432 14.6432 0 1 1 11.6736-26.8288 54.8864 54.8864 0 0 0 54.3232-5.7344 54.784 54.784 0 0 0 16.2816-70.8608 14.6432 14.6432 0 0 1 3.9936-18.5856 42.496 42.496 0 0 0-5.2736-71.168 14.6944 14.6944 0 0 1 14.1824-25.6c26.5728 14.6944 41.0624 44.4928 36.2496 74.496-2.304 14.08-8.704 27.136-18.4832 37.5808 5.12 13.6704 6.6048 28.5184 4.1984 42.9056a83.968 83.968 0 0 1-33.9968 55.04c-14.336 10.3424-31.5392 15.9232-49.2032 15.9232z" fill="#CA3A2A" p-id="3501"></path><path d="M584.448 278.3232h111.104c58.5216 0 111.616 22.9376 151.04 60.2112V288.768a164.864 164.864 0 0 0-164.864-164.864h-83.456a164.864 164.864 0 0 0-164.864 164.864v49.7664a218.9312 218.9312 0 0 1 151.04-60.2112z" fill="#FF664D" p-id="3502"></path><path d="M433.408 353.28a14.6944 14.6944 0 0 1-14.6944-14.7456V288.768a179.7632 179.7632 0 0 1 179.5584-179.5584h83.4048A179.8144 179.8144 0 0 1 861.184 288.768v49.7664a14.6432 14.6432 0 0 1-24.7808 10.6496 204.1344 204.1344 0 0 0-140.9024-56.2176h-111.104c-52.6336 0-102.7072 19.968-140.9536 56.2176a14.592 14.592 0 0 1-10.0864 4.096z m164.864-214.7328A150.3744 150.3744 0 0 0 448.0512 288.768v18.688a233.1136 233.1136 0 0 1 136.3968-43.776h111.104c49.3568 0 96.768 15.36 136.3456 43.776v-18.6368a150.4256 150.4256 0 0 0-150.2208-150.272h-83.4048z" fill="#CA3A2A" p-id="3503"></path><path d="M936.704 503.3984l25.2928 137.6768c0 150.3744-115.0976 272.3328-257.024 272.3328H574.976c-141.9776 0-257.024-121.9584-257.024-272.3328l25.2416-137.728 296.7552-110.592 296.704 110.592z" fill="#FBEDD7" p-id="3504"></path><path d="M704.9728 935.3216H574.976c-149.8624 0-271.7184-128.768-271.7184-286.976 0-0.9216 0.0512-1.792 0.2048-2.6624l25.2928-137.728a14.6944 14.6944 0 0 1 28.8768 5.3248l-25.088 136.3456c0.7168 141.4656 109.1584 256.3584 242.3808 256.3584h129.9456c133.2736 0 241.7152-114.8416 242.3808-256.3584l-25.0368-136.3456a14.6944 14.6944 0 1 1 28.8768-5.2736l25.2928 137.728a14.5408 14.5408 0 0 1 0.256 2.56c0 158.2592-121.9072 287.0272-271.7184 287.0272z" fill="#CA3A2A" p-id="3505"></path><path d="M553.1136 482.048h173.7728c91.5456 0 174.592 35.84 236.2368 94.208v-77.824a257.8944 257.8944 0 0 0-257.9456-257.9456h-130.4064A257.9456 257.9456 0 0 0 316.928 498.432v77.824a342.3232 342.3232 0 0 1 236.2368-94.208z" fill="#FF664D" p-id="3506"></path><path d="M316.928 590.9504a14.6944 14.6944 0 0 1-14.6944-14.6944v-77.824a272.896 272.896 0 0 1 272.5376-272.5888h130.4576a272.896 272.896 0 0 1 272.5376 272.5888v77.824a14.6944 14.6944 0 0 1-24.7296 10.7008 327.424 327.424 0 0 0-226.1504-90.2144h-173.7728c-84.48 0-164.7616 32.0512-226.1504 90.2144a14.6944 14.6944 0 0 1-10.0864 3.9936z m257.8432-335.7696a243.5072 243.5072 0 0 0-243.2 243.2v45.824a356.5056 356.5056 0 0 1 221.5424-76.8h173.7728c80.9984 0 158.5152 27.0336 221.5424 76.8v-45.824c0-134.144-109.1072-243.2-243.2-243.2h-130.4576z" fill="#CA3A2A" p-id="3507"></path><path d="M553.1136 482.048c-91.5456 0-174.592 35.84-236.2368 94.208v44.288a342.3744 342.3744 0 0 1 236.2368-94.208h173.7728c91.5456 0 174.592 35.84 236.2368 94.208v-44.288a342.272 342.272 0 0 0-236.2368-94.208h-173.7728z" fill="#FFCB27" p-id="3508"></path><path d="M316.928 635.2384a14.6944 14.6944 0 0 1-14.6944-14.6944v-44.288c0-3.9936 1.6384-7.8336 4.608-10.5984a356.7104 356.7104 0 0 1 246.272-98.304h173.7728c91.9552 0 179.456 34.9184 246.272 98.304 2.9696 2.7136 4.608 6.6048 4.608 10.5984v44.288a14.6944 14.6944 0 0 1-24.7808 10.6496 327.5776 327.5776 0 0 0-226.0992-90.1632h-173.7728c-84.48 0-164.7616 32.0512-226.1504 90.2144a14.592 14.592 0 0 1-10.0864 3.9936z m14.6432-52.5824v5.8368a356.5056 356.5056 0 0 1 221.5424-76.8h173.7728c80.9984 0 158.5152 27.0336 221.5424 76.8v-5.8368a327.3728 327.3728 0 0 0-221.5424-85.9136h-173.7728c-82.3296 0-160.768 30.464-221.5424 85.9136z" fill="#CA3A2A" p-id="3509"></path><path d="M314.88 590.9504a14.6944 14.6944 0 0 1-14.6944-14.6944v-77.824a272.896 272.896 0 0 1 272.5888-272.5888h126.5664a14.6432 14.6432 0 1 1 0 29.3376 243.5072 243.5072 0 0 0-243.2 243.2v1.6896a14.6944 14.6944 0 0 1-10.0352 13.8752 331.264 331.264 0 0 0-121.1392 73.0112 14.6944 14.6944 0 0 1-10.0864 3.9936z m257.8944-335.7696a243.5072 243.5072 0 0 0-243.2 243.2v45.8752a361.4208 361.4208 0 0 1 97.28-54.6304 272.896 272.896 0 0 1 149.504-234.496h-3.584z" fill="#CA3A2A" p-id="3510"></path><path d="M965.12 590.9504a14.6432 14.6432 0 0 1-10.1376-3.9936 331.5712 331.5712 0 0 0-121.1392-73.0112 14.6944 14.6944 0 0 1-9.984-13.8752v-1.6384a243.5072 243.5072 0 0 0-243.2-243.2512 14.6944 14.6944 0 0 1 0-29.3376h126.5152a272.896 272.896 0 0 1 272.5888 272.5888v77.824a14.6944 14.6944 0 0 1-14.6432 14.6944z m-112.0256-101.3248a362.0864 362.0864 0 0 1 97.3312 54.6304v-45.8752c0-134.144-109.1072-243.2-243.2-243.2h-3.584a272.9984 272.9984 0 0 1 149.4528 234.496z" fill="#CA3A2A" p-id="3511"></path><path d="M602.5216 376.5248a37.4784 37.4784 0 1 0 74.9568 0 37.4784 37.4784 0 0 0-74.9568 0z" fill="#FFCB27" p-id="3512"></path><path d="M640 428.6464a52.224 52.224 0 0 1 0-104.2432 52.224 52.224 0 0 1 52.1216 52.1216A52.224 52.224 0 0 1 640 428.6464z m0-74.9056a22.8352 22.8352 0 1 0 0.0512 45.6192 22.8352 22.8352 0 0 0-0.0512-45.6192z" fill="#CA3A2A" p-id="3513"></path><path d="M209.408 627.8144a110.336 110.336 0 1 1-156.0576-156.0576 110.336 110.336 0 0 1 156.0576 156.0576z" fill="#FF664D" p-id="3514"></path><path d="M131.3792 674.816a124.2624 124.2624 0 0 1-88.4224-36.608 125.184 125.184 0 0 1 0-176.8448 124.16 124.16 0 0 1 88.4224-36.608 124.2112 124.2112 0 0 1 88.3712 36.608 125.184 125.184 0 0 1 0 176.8448 124.2112 124.2112 0 0 1-88.3712 36.608z m0-220.7232a95.0784 95.0784 0 0 0-67.6864 28.0064 95.8464 95.8464 0 0 0 0 135.3728c17.92 17.9712 42.2912 28.0576 67.6864 28.0064 25.5488 0 49.5616-9.9328 67.6864-28.0064a95.8464 95.8464 0 0 0 0-135.3728 95.1296 95.1296 0 0 0-67.6864-28.0064z" fill="#CA3A2A" p-id="3515"></path><path d="M236.6464 549.7856s-46.592 32.1024-59.904 45.3632c-13.312 13.312-45.3632 59.904-45.3632 59.904s-32.256-46.7456-45.3632-59.904c-13.1584-13.1584-59.904-45.3632-59.904-45.3632s46.6944-32.1536 59.904-45.3632c13.2096-13.2096 45.3632-59.904 45.3632-59.904s32.256 46.7456 45.3632 59.904c13.1584 13.1584 59.904 45.3632 59.904 45.3632z" fill="#FFCB27" p-id="3516"></path><path d="M131.3792 669.696a14.6432 14.6432 0 0 1-12.0832-6.3488c-8.704-12.6464-33.6384-47.8208-43.6736-57.856-9.984-9.984-45.1584-34.8672-57.856-43.6224a14.6944 14.6944 0 0 1 0-24.1664c12.6976-8.704 47.8208-33.6384 57.856-43.6736 10.0352-10.0352 34.9184-45.1584 43.6736-57.856a14.6944 14.6944 0 0 1 24.1664 0c8.704 12.7488 33.6384 47.872 43.6224 57.856 10.0352 10.0352 45.1584 34.9184 57.856 43.6736a14.7456 14.7456 0 0 1 0 24.1664c-12.6464 8.704-47.7184 33.5872-57.856 43.6736-10.0864 10.1376-34.9184 45.1584-43.6224 57.856a14.7456 14.7456 0 0 1-12.0832 6.2976z m-79.7696-119.9104c15.2064 10.8544 36.0448 26.2656 44.7488 34.9696 8.7552 8.8064 24.1664 29.5936 35.0208 44.8 10.8032-15.1552 26.1632-35.9424 34.9696-44.7488 8.8064-8.8576 29.5936-24.1664 44.7488-35.0208-15.1552-10.8544-35.9936-26.2656-44.7488-35.0208-8.704-8.704-24.1152-29.5424-34.9696-44.7488-10.8544 15.2064-26.2144 35.9936-35.0208 44.7488-8.7552 8.8064-29.5424 24.1664-44.7488 35.0208z" fill="#CA3A2A" p-id="3517"></path><path d="M316.16 547.072h-67.584a14.6944 14.6944 0 1 1 0-29.3376h67.584a14.6944 14.6944 0 1 1 0 29.3376z m-79.5136 66.4064a14.6944 14.6944 0 0 1-3.9936-28.7744l79.5136-22.528a14.6944 14.6944 0 0 1 7.9872 28.2112l-79.5136 22.528a15.2576 15.2576 0 0 1-3.9936 0.5632z" fill="#CA3A2A" p-id="3518"></path><path d="M1070.592 627.8144a110.3872 110.3872 0 1 0 156.1088-156.0576 110.3872 110.3872 0 0 0-156.16 156.0576z" fill="#FF664D" p-id="3519"></path><path d="M1148.6208 674.816a124.2112 124.2112 0 0 1-88.4224-36.608 125.2352 125.2352 0 0 1 0-176.8448 124.16 124.16 0 0 1 88.4224-36.608 124.3136 124.3136 0 0 1 88.4224 36.608 125.2352 125.2352 0 0 1 0 176.8448 124.3136 124.3136 0 0 1-88.4224 36.608z m0-220.7232a95.0784 95.0784 0 0 0-67.6864 28.0064 95.8464 95.8464 0 0 0 0 135.3728c17.92 17.9712 42.2912 28.0576 67.6864 28.0064 25.6 0 49.6128-9.9328 67.6864-28.0064a95.8464 95.8464 0 0 0 0-135.3728 95.1296 95.1296 0 0 0-67.6864-28.0064z" fill="#CA3A2A" p-id="3520"></path><path d="M1043.3536 549.7856s46.592 32.1024 59.904 45.3632c13.312 13.312 45.3632 59.904 45.3632 59.904s32.2048-46.7456 45.3632-59.904c13.1584-13.1584 59.904-45.3632 59.904-45.3632s-46.6944-32.1536-59.904-45.3632c-13.1584-13.2096-45.3632-59.904-45.3632-59.904s-32.2048 46.7456-45.3632 59.904c-13.1584 13.1584-59.904 45.3632-59.904 45.3632z" fill="#FFCB27" p-id="3521"></path><path d="M1148.6208 669.696a14.6432 14.6432 0 0 1-12.0832-6.3488c-8.704-12.6464-33.536-47.7184-43.6736-57.856-10.0864-10.0864-45.1584-34.9184-57.856-43.6224a14.6944 14.6944 0 0 1 0-24.1664c12.7488-8.704 47.872-33.6384 57.856-43.6736 10.0352-9.984 34.9184-45.1584 43.6736-57.856a14.6944 14.6944 0 0 1 24.1664 0c8.704 12.6976 33.6384 47.8208 43.6736 57.856 10.0352 10.0352 45.1584 34.9184 57.856 43.6736a14.6432 14.6432 0 0 1 0 24.1664c-12.6976 8.704-47.8208 33.6384-57.856 43.6736-10.0352 10.0352-34.9184 45.1584-43.6736 57.856a14.7456 14.7456 0 0 1-12.0832 6.2976z m-79.7696-119.9104c15.1552 10.8032 35.9424 26.1632 44.7488 34.9696 8.8576 8.8576 24.1664 29.5936 35.0208 44.7488 10.8544-15.1552 26.2656-35.9936 34.9696-44.7488 8.8064-8.704 29.5936-24.1152 44.8-34.9696-15.2064-10.8544-35.9936-26.2656-44.8-35.0208-8.704-8.704-24.1152-29.5424-34.9696-44.7488-10.8544 15.2064-26.2656 36.0448-35.0208 44.7488-8.704 8.7552-29.5424 24.1664-44.7488 35.0208z" fill="#CA3A2A" p-id="3522"></path><path d="M1031.424 547.072h-67.584a14.6944 14.6944 0 1 1 0-29.3376h67.584a14.6944 14.6944 0 1 1 0 29.3376z m11.9296 66.4064a14.336 14.336 0 0 1-3.9936-0.512l-79.5136-22.5792a14.6432 14.6432 0 1 1 7.9872-28.2112l79.5136 22.528a14.6432 14.6432 0 0 1-3.9936 28.7744z m-462.6944 86.3744a14.6432 14.6432 0 0 1-14.6432-14.6432 27.2896 27.2896 0 0 0-54.4768 0 14.6944 14.6944 0 0 1-29.3376 0c0-31.232 25.3952-56.576 56.576-56.576 31.232 0 56.576 25.3952 56.576 56.576a14.6944 14.6944 0 0 1-14.6944 14.6432z m202.4448 0a14.6944 14.6944 0 0 1-14.6944-14.6432 27.2896 27.2896 0 0 0-54.4256 0 14.6432 14.6432 0 1 1-29.3376 0c0-31.232 25.344-56.576 56.5248-56.576 31.232 0 56.576 25.3952 56.576 56.576a14.6432 14.6432 0 0 1-14.6432 14.6432zM472.576 983.7056a14.6432 14.6432 0 0 1-7.9872-26.9824c20.6848-13.4656 5.4784-67.6352-5.2736-92.16-35.1744-68.864-39.7312-114.8928-13.6192-136.704 25.4464-21.1968 69.12-8.1408 86.4256 5.12 12.288 9.472 37.7856 12.9536 45.7216 13.4144a14.6432 14.6432 0 1 1-1.7408 29.2864c-4.096-0.256-40.2432-2.816-61.8496-19.4048-9.8816-7.5264-38.2976-15.4112-49.7664-5.888-5.0176 4.2496-18.432 23.9104 21.1456 101.1712l0.3584 0.768c4.4032 9.984 41.6768 98.304-5.4272 128.9728a14.4896 14.4896 0 0 1-7.9872 2.4064z m334.7968 0a14.592 14.592 0 0 1-7.9872-2.4064c-47.0528-30.6176-9.8304-118.9888-5.4272-128.9728a14.5408 14.5408 0 0 1 0.3584-0.768c39.5776-77.2096 26.2144-96.9216 21.1456-101.12-11.4176-9.5232-39.936-1.6896-49.7664 5.888-21.6064 16.5376-57.7536 19.1488-61.7984 19.3536a14.6944 14.6944 0 0 1-1.792-29.2864c8.5504-0.512 33.4848-3.9424 45.7216-13.3632 17.3568-13.312 61.0304-26.3168 86.4256-5.12 26.112 21.8112 21.6064 67.7888-13.568 136.6528-10.752 24.576-25.9072 78.7456-5.2736 92.16a14.6432 14.6432 0 0 1-8.0384 26.9824z" fill="#CA3A2A" p-id="3523"></path><path d="M749.7216 760.3712a109.7728 109.7728 0 0 1-219.4944 0c0-60.6208 70.9632-13.312 109.7728-13.312 38.7584 0 109.7216-47.3088 109.7216 13.312z" fill="#FF664D" p-id="3524"></path><path d="M676.8128 746.0864v54.528c0 4.4032-3.584 7.936-7.9872 7.936h-57.7024a7.9872 7.9872 0 0 1-7.936-7.936v-54.528" fill="#FFFFFF" p-id="3525"></path><path d="M668.8256 823.2448h-57.7024a22.6304 22.6304 0 0 1-22.6304-22.6304v-54.528a14.6944 14.6944 0 0 1 29.3376 0v47.8208h44.288v-47.8208a14.6944 14.6944 0 0 1 29.3376 0v54.528a22.6304 22.6304 0 0 1-22.6304 22.6304z" fill="#CA3A2A" p-id="3526"></path><path d="M640 884.7872c-68.608 0-124.416-55.808-124.416-124.416 0-28.928 14.8992-45.568 40.96-45.568 14.2848 0 30.5664 4.8128 46.336 9.472 13.5168 3.9936 27.4432 8.192 37.0688 8.192 9.6768 0 23.6032-4.1984 37.12-8.192 15.7696-4.608 32.0512-9.4208 46.336-9.4208 26.0608 0 40.96 16.5888 40.96 45.5168 0 68.608-55.808 124.416-124.416 124.416z m-83.456-140.5952c-6.7584 0-11.6224 0-11.6224 16.1792a95.232 95.232 0 0 0 95.0784 95.0784 95.232 95.232 0 0 0 95.0784-95.0784c0-16.1792-4.9152-16.1792-11.6224-16.1792-10.0352 0-24.2688 4.1984-38.0416 8.2432-15.5136 4.608-31.5392 9.3184-45.4144 9.3184s-29.952-4.7104-45.4656-9.3184c-13.7216-4.096-27.9552-8.2432-37.9904-8.2432z" fill="#CA3A2A" p-id="3527"></path><path d="M201.472 809.728l9.216 9.1648-9.216 9.216-9.1648-9.216 9.216-9.216z m0 44.032l-9.1136-9.216 9.1648-9.216 9.216 9.216-9.216 9.216z m3.6864-22.1184l9.216-9.1648 9.1648 9.216-9.216 9.216-9.1648-9.216z m-25.6 0.0512l9.1648-9.1648 9.216 9.216-9.216 9.1136-9.216-9.1648z" fill="#FFB000" p-id="3528"></path></svg>