<?xml version="1.0" standalone="no"?><!DOCTYPE svg PUBLIC "-//W3C//DTD SVG 1.1//EN" "http://www.w3.org/Graphics/SVG/1.1/DTD/svg11.dtd"><svg t="1712842755002" class="icon" viewBox="0 0 1024 1024" version="1.1" xmlns="http://www.w3.org/2000/svg" p-id="20910" xmlns:xlink="http://www.w3.org/1999/xlink" width="200" height="200"><path d="M557.531 100.89c202.48 27.15 349.287 160.119 365.672 372.372 16.471 213.919-103.802 340.511-248.269 412.628 1.756-138.412 11.088-303.738-3.335-436.122-15.71-14.833-54.592-12.463-67.113 3.365-7.694 87.329-1.199 188.907-3.336 281.793H477.018c-14.102-88.557 43.182-355.753-67.084-288.522-9.421 80.894 2.486 212.165-6.7 271.729H272.401V265.25c-69.162 49.384-94.644 144.935-104.006 234.839-0.234 2.194-0.029 4.505 0 6.699 0.614 210.264 187.298 396.654 432.755 338.814 10.123 18.023-2.164 42.48 0 63.779-275.269 34.055-467.482-117.082-489.804-355.637-21.649-231.504 108.95-379.745 291.859-436.092 0.673 62.169 8.484 148.445 0 197.917 44.001-9.976 111.202 1.61 134.227 33.557 63.632-60.94 181.826-34.083 228.08 20.128 61.116 71.59 27.677 207.425 40.257 332.144 37.799-53.654 65.153-150.932 57.049-244.931-16.324-189.55-190.193-304.673-389.164-298.559v-53.685c8.016-2.045 64.86-3.333 83.877-3.333z" fill="#FF0000" p-id="20911"></path></svg>