<?xml version="1.0" standalone="no"?><!DOCTYPE svg PUBLIC "-//W3C//DTD SVG 1.1//EN" "http://www.w3.org/Graphics/SVG/1.1/DTD/svg11.dtd"><svg t="1712839821797" class="icon" viewBox="0 0 1024 1024" version="1.1" xmlns="http://www.w3.org/2000/svg" p-id="11330" xmlns:xlink="http://www.w3.org/1999/xlink" width="200" height="200"><path d="M885.028571 186.514286l36.571429-3.657143-7.314286-73.142857-36.571428 3.657143c-124.342857 10.971429-245.028571 14.628571-362.057143 14.628571s-237.714286-3.657143-362.057143-14.628571l-36.571429-3.657143L109.714286 182.857143l36.571428 3.657143a515.072 515.072 0 0 0 73.142857 3.657143l-3.657142 84.114285H149.942857v73.142857h731.428572v-73.142857h-65.828572l-7.314286-84.114285c25.6 0 51.2-3.657143 76.8-3.657143z m-588.8 7.314285c62.171429 3.657143 120.685714 7.314286 182.857143 7.314286v73.142857H292.571429z m442.514286 80.457143h-186.514286v-73.142857c62.171429 0 120.685714-3.657143 182.857143-7.314286zM184.758857 930.486857l25.526857-511.341714 73.033143 3.657143-25.490286 511.341714zM747.995429 422.729143l73.069714-3.657143 25.526857 511.378286-73.033143 3.657143z" p-id="11331"></path></svg>