<?xml version="1.0" standalone="no"?><!DOCTYPE svg PUBLIC "-//W3C//DTD SVG 1.1//EN" "http://www.w3.org/Graphics/SVG/1.1/DTD/svg11.dtd"><svg t="1713104728261" class="icon" viewBox="0 0 1024 1024" version="1.1" xmlns="http://www.w3.org/2000/svg" p-id="17155" xmlns:xlink="http://www.w3.org/1999/xlink" width="200" height="200"><path d="M871.88 864.3l-15.79-15.59c-3.5-3.45-8.12-5.72-13.03-6.4l-38.05-4.92c-8.71-1.17-17.43 2.92-22.19 10.41l-10.36 16.23a22.97 22.97 0 0 0-3.42 15.07l3.39 27.78c1.32 10.82 10.14 19.31 20.98 20.18 34.72 2.83 40.97 3.29 42.25 3.35 0.2 0.01 0.4 0.01 0.61 0.01 3.24 0 6.44-1.02 17.06-4.54 7.16-2.39 9.52-3.14 10.26-3.36 14.6-1.34 14.82-17.38 15.15-41.56 0.09-6.28-2.35-12.2-6.86-16.66z m-20.03 17.99c-0.14 7.8-0.45 12.91-0.71 16.04-1.62 0.52-3.49 1.14-5.65 1.86l-0.65 0.22c-5.52 1.85-8.22 2.7-9.55 3.08-6.03-0.44-26.28-2.1-36.59-3.01l-2.83-23.2 8.23-12.91 34.06 4.41 13.69 13.51zM237.27 798.79c-0.77-8.78-6.61-16.43-14.87-19.5l-17.99-6.66a22.804 22.804 0 0 0-15.5-0.18l-26.53 9.2c-10.23 3.54-16.63 13.91-15.21 24.64 0.87 6.62 5.24 39.79 5.66 42.14 0.61 3.41 2.19 6.19 8.16 16.27l0.38 0.64c1.57 2.65 4.39 7.45 5.07 8.7 2.86 9 10.65 10.05 16.3 10.05 6.28 0 14.51-1.41 27.53-4.02 6.16-1.26 11.42-4.88 14.83-10.22l11.9-18.73c2.64-4.16 3.89-9.16 3.51-14.11l-3.24-38.22z m-23.66 39.05l-10.31 16.24c-7.65 1.51-12.72 2.29-15.83 2.68-0.95-1.63-2.06-3.52-3.36-5.71-1.09-1.83-3.82-6.44-5.03-8.7-0.74-5.35-2.96-22.05-4.85-36.37l22.15-7.69 14.36 5.32 2.87 34.23zM401.48 366.7l0.51 0.33c2.22 1.42 6.17 3.96 7.29 4.71 2.74 2.78 5.94 4.18 9.53 4.18 7.69-0.01 16.08-6.27 29.12-16.49 4.87-3.81 8.02-9.54 8.65-15.74l1.87-18.75c0.49-4.9-0.65-9.93-3.21-14.16l-0.11-0.17-17.11-27.85c-4.63-7.49-13.27-11.7-22.03-10.72l-15.82 1.78c-5.27 0.6-10.2 3.02-13.89 6.81l-16.38 16.89c-7.54 7.76-8.61 19.89-2.52 28.83 9.52 13.96 19.76 28.98 20.8 30.38 1.99 2.67 4.4 4.27 13.3 9.97z m-10.07-52.77l13.16-13.57 11.91-1.33 15.1 24.57-1.55 15.72c-4.48 3.48-7.72 5.83-9.99 7.39-1.18-0.76-2.52-1.63-4.07-2.63-1.5-0.96-5.24-3.35-7.15-4.67-2.9-4.19-11.35-16.58-17.41-25.48zM814.35 199.4l0.51 0.33c2.22 1.42 6.17 3.96 7.29 4.71 2.74 2.78 5.94 4.18 9.53 4.18 7.69-0.01 16.08-6.27 29.12-16.49 4.87-3.81 8.02-9.54 8.65-15.74l1.87-18.75c0.49-4.9-0.65-9.93-3.21-14.16l-0.11-0.17-17.11-27.85c-4.63-7.49-13.27-11.7-22.03-10.72l-15.82 1.78c-5.27 0.6-10.2 3.02-13.89 6.81l-16.38 16.89c-7.54 7.76-8.61 19.89-2.52 28.83 9.52 13.96 19.76 28.98 20.8 30.38 1.98 2.67 4.39 4.27 13.3 9.97z m-10.07-52.77l13.16-13.57 11.91-1.33 15.1 24.57-1.55 15.72c-4.48 3.48-7.72 5.83-9.99 7.39-1.18-0.76-2.52-1.63-4.07-2.63-1.5-0.96-5.24-3.35-7.15-4.67-2.9-4.19-11.36-16.58-17.41-25.48zM801.85 432.77l17.22 32.62c3.7 7.06 10.68 11.63 18.69 12.2l5.77 0.4c0.52 0.04 1.04 0.05 1.56 0.05 3.52 0 7.03-0.82 10.15-2.36l6.59-3.25c4.26-2.1 7.12-6.36 7.46-11.11l3.07-44.36c0-0.05 0.01-0.1 0.01-0.16l3.16-107.59c0.2-7.22-2.04-14.39-6.33-20.19-0.04-0.07-0.09-0.13-0.14-0.2l-22.94-30.59a22.959 22.959 0 0 0-15.76-9.03c-6.27-0.69-12.61 1.23-17.38 5.28l-21.02 17.81a22.915 22.915 0 0 0-8.1 16.67l-3.49 97.78c-0.13 4.08 0.83 8.13 2.79 11.75l18.69 34.28z m5.38-46.17l3.4-94.92 16.5-13.97 20.43 27.24c0.75 1 1.13 2.23 1.09 3.48l-3.13 107.13-2.46 35.48-1.27-0.09-16.3-30.87-18.26-33.48zM265.65 598.01h-0.11l-42.04-2.13c-3.98-0.13-7.69 0.63-11.02 2.24l-50.89 24.41c-11.21 5.38-16.11 18.93-10.92 30.21 10.14 22.03 22.47 48.77 23.69 51.05 1.95 3.66 4.65 5.87 18.95 16.65l0.26 0.19c3.72 2.8 11.28 8.51 12.84 9.87 1.91 2.57 4.41 5.61 11.09 5.61 6.86 0 19.16-2.82 56.85-16.59 5.19-1.88 9.52-5.61 12.21-10.5l16.26-29.72c3.21-5.85 3.7-12.79 1.35-19.06l-18.32-47.68c-3.29-8.4-11.22-14.11-20.2-14.55zM278.36 668l-14.62 26.78c-21.57 7.85-35.37 12.12-41.89 13.71-2.78-2.26-6.78-5.31-12.36-9.51-3.41-2.57-9.53-7.18-12.16-9.39-2.51-5.31-10.07-21.63-20.61-44.54l46.48-22.3 38.54 1.95 16.62 43.3zM318.42 551.75s0-0.01 0 0l27.11-31 25.99-28.84c5.22-5.8 7.33-14.06 5.65-22.11l-1.54-7.41c-0.72-3.41-2.22-6.67-4.37-9.43l-1.94-2.48c-5.41-6.93-14.12-10.12-22.74-8.33l-37.82 7.89c-0.06 0.01-0.12 0.03-0.18 0.04l-107.43 27.71c-5.38 1.4-10.05 4.83-13.16 9.66l-25.48 39.78c-6.23 9.72-4.05 23 4.95 30.24l25.48 20.44c4.1 3.29 9.13 5.1 14.17 5.1 1.8 0 3.58-0.22 5.26-0.66l94.79-23.69c4.35-1.08 8.25-3.47 11.26-6.91z m32.36-76.95l-25.34 28.12-25.98 29.98-91.22 22.83-21.2-17.01 22.36-35.31 105.37-27.19 34.79-7.25 1.22 5.83zM732.66 722.89c-0.08-0.1-0.16-0.2-0.24-0.29a22.942 22.942 0 0 0-13.92-8.19l-110.58-19.19c-4.45-0.78-9.01-0.12-13.19 1.91l-52.15 25.25c-9.05 4.38-14.24 14.36-12.63 24.27l6.59 40.82c1.24 7.59 6.09 13.81 12.98 16.64l94.22 38.79c0.54 0.22 1.07 0.41 1.57 0.54l2.37 0.65c0.58 0.15 1.14 0.26 1.65 0.33l46.48 6.43c0.95 0.14 1.93 0.2 2.91 0.2 5.16 0 10.24-1.88 14.31-5.28l37.9-31.56c2.57-2.14 4.67-4.87 6.08-7.88l6.73-14.38c1.28-2.68 2.02-5.58 2.19-8.65l0.41-8.13c0.29-5.49-1.36-10.83-4.64-15.06l-29.04-37.22z m6.76 52.39l-0.3 5.91-6.08 12.99-35.3 29.84-43.65-6.04-91.48-37.52-5.69-35.18 47.68-23.36 107.81 18.71 27.01 34.65zM174.41 189.12c1.92 6.13 6.37 11.21 12.25 13.94l34.38 15.62c2.97 1.34 6.13 2.01 9.38 2.01 5.63 0 11.04-2.06 15.22-5.78l22.1-19.64c2.96-2.64 5.19-6.01 6.47-9.76l12.73-37.57c4-11.79-1.97-24.49-13.58-28.93-37.23-14.19-38.58-14.62-39.39-14.88-3.74-1.18-6.79-0.88-20.6 0.77-3.4 0.41-10.19 1.22-11.99 1.39-10.99-1.65-15.54 4.39-33.25 43.14-2.36 5.16-2.72 11-1.01 16.44l7.29 23.25z m18.78-29.88c7.03-15.32 11.2-23.11 13.13-26.5 2.47-0.24 5.72-0.62 10.25-1.16l0.08-0.01c3.36-0.4 8.26-0.99 10.89-1.2 3.19 1.19 11.45 4.32 32.75 12.53l-11.18 32.99-19.39 17.23-30.22-13.73-6.31-20.15z m22.92-31.58zM432.09 798.79c-0.01 0-0.01 0 0 0-0.87-0.94-1.76-1.78-2.63-2.45l-83.95-67.1c-4.82-3.85-10.83-5.59-16.91-4.88-6.12 0.69-11.59 3.74-15.38 8.57l-39.78 50.4a23.03 23.03 0 0 0-4.92 14.18v89.99c0 11.02 7.85 20.49 18.67 22.51l109.24 20.58a22.874 22.874 0 0 0 19.12-5.08l56.34-48.11c4.77-4.07 7.61-9.76 7.99-16.01 0.39-6.26-1.73-12.25-5.95-16.87l-41.84-45.73z m19.23 60.84l-51.8 44.22-104.17-19.63v-85.35l36.46-46.18 80.63 64.44 38.88 42.5zM163.46 412.87l109.71 23.05c1.54 0.33 3.13 0.49 4.72 0.49 4.9 0 9.75-1.61 13.67-4.53l65.47-48.7a22.89 22.89 0 0 0 8.1-25.53l-18.92-57.63c-2.51-7.67-8.97-13.51-16.85-15.23l-132-29.04c-5.31-1.18-10.9-0.41-15.72 2.15l-24.27 12.94c-7.48 4-12.12 11.74-12.12 20.21v99.39c0.01 10.79 7.66 20.22 18.21 22.43z m8.66-25.63v-93.8l20.89-11.14 128.39 28.25 17.33 52.79-61.76 45.94-104.85-22.04zM314.41 221.82c2.63 10.1 11.75 17.15 22.18 17.15l27.39-0.02c0.08 0 0.16 0 0.24-0.01l1.21-0.06c0.04 0 0.07-0.01 0.11-0.01l84.13-7.5c7.85-0.71 14.69-5.31 18.3-12.29l28.2-54.46c3.18-6.14 3.43-13.31 0.66-19.68L478.4 102.6c-3.91-8.96-13.04-14.46-22.71-13.69l-70.97 5.31c-6.89 0.51-13.11 4.05-17.07 9.71l-25.01 35.72-26.39 36.55a22.728 22.728 0 0 0-4.34 13.42v19.64c0 1.95 0.25 3.9 0.74 5.8l1.76 6.76z m24.36-30.91l25.77-35.69 24.05-34.35 66.31-4.97 16.56 38.03-26.35 50.87-81.79 7.29-23.67 0.01-0.87-3.34-0.01-17.85zM622.51 669.27c0.04 0.07 0.08 0.13 0.12 0.2 3.94 7.04 11.24 11.4 19.1 11.4l124.22-1.76c3.47-0.07 6.93-0.93 10.04-2.5l51.88-26.51c3.74-1.89 6.88-4.78 9.09-8.34l33.6-54.11c2.1-3.37 3.29-7.24 3.45-11.2l0.95-23.53c0.02-0.76-0.01-1.49-0.09-2.21l-0.42-3.21c-0.1-0.76-0.27-1.54-0.51-2.31l-3.1-9.88c-2.84-9.07-10.94-15.43-20.16-15.81l-48.91-1.96c-0.3-0.01-0.89-0.01-1.24-0.01l-139.14 3.41c-6.55 0.14-12.68 3.27-16.81 8.59l-48.56 62.61a22.91 22.91 0 0 0-1.99 25.01l28.48 52.12z m22.25-15.3l-25.94-47.45 45.07-58.77 136.92-3.38 45.21 1.62 1.92 6.12 0.12 0.92-0.85 21.29-32.49 52.32-50.14 25.61-119.82 1.72zM604.07 851.22a13.583 13.583 0 0 0-7.66-3.76l-41.18-5.34c-8.73-1.13-17.44 2.96-22.17 10.41l-10.33 16.2a23.006 23.006 0 0 0-3.45 15.1l3.4 27.89c1.31 10.74 10.08 19.18 20.86 20.06 26.59 2.17 40.85 3.3 42.33 3.36 0.21 0.01 0.42 0.01 0.64 0.01 3.1 0 5.99-0.86 17.04-4.53 5.8-1.93 9.27-3.06 10.31-3.36 14.58-1.38 14.81-17.41 15.14-41.56 0.08-6.3-2.35-12.22-6.86-16.66l-18.07-17.82z m-1.99 35.81c-0.13 7.81-0.43 12.92-0.7 16.03-1.71 0.55-3.76 1.23-6.32 2.09l-1.33 0.44c-2.7 0.89-6.3 2.08-8.23 2.63-4.61-0.34-18-1.41-36.57-2.92L546.1 882l8.23-12.9 34.06 4.4 13.69 13.53zM442.98 486.21c2.01 9.95 10.15 17.29 20.24 18.27l155.04 15.1a22.914 22.914 0 0 0 16.95-5.25l31.86-26.73c6.02-5.03 9.01-12.7 8.01-20.51l-8.85-68.32c-1.48-11.37-11.25-19.95-22.72-19.95l-134.2 0.02c-4.28 0-8.47 1.2-12.15 3.48l-53.24 33.28c-8.05 5.03-12.2 14.65-10.33 23.95l9.39 46.66z m17.47-49.26l49.97-31.23 129.59-0.02 8.12 62.72-28.92 24.28-150.48-14.66-8.28-41.09zM469.12 253.58v29.44c0 0.63 0.04 1.27 0.13 1.89l0.33 2.36c0.08 0.59 0.19 1.18 0.36 1.78l4.59 16.8c2.09 7.66 8.13 13.79 15.76 15.99l85.22 24.53c2.06 0.6 4.2 0.9 6.35 0.9 1.39 0 2.76-0.12 4.04-0.36l139.14-25c9.95-1.78 17.46-9.71 18.69-19.73l12.38-99.93c0.54-4.23-0.12-8.51-1.9-12.39l-33.24-72.71c-3.97-8.65-13.01-14.01-22.46-13.31l-118.66 8.46c-10.87 0.77-19.75 9.18-21.11 19.98l-8.93 70.63-67.03 29.72c-8.31 3.67-13.67 11.89-13.66 20.95z m26.86 28.53l0.01-25.96 66.72-29.58c7.3-3.23 12.45-10.16 13.46-18.08l8.81-69.62 112.72-8.04 31.63 69.19L717.44 296l-135.39 24.32-82.2-23.66-3.78-13.82-0.09-0.73zM540.95 642.59c3.18-5.85 3.69-12.75 1.38-18.95l-0.03-0.09-8.58-22.92c-0.04-0.13-0.09-0.24-0.13-0.34l-15.11-38.75c-3.27-8.38-11.19-14.1-20.19-14.58l-54.74-2.77h-0.13c-4.04-0.08-7.71 0.68-10.96 2.23l-66.25 31.8c-11.2 5.38-16.1 18.93-10.91 30.22 19.94 43.33 29.35 63.61 30.49 65.74 2.01 3.76 4.78 6.16 22.76 19.72 4.57 3.45 15.11 11.39 16.95 13.13 1.93 2.61 4.44 5.71 11.6 5.71 9.74 0 30.14-6.02 70.4-20.78a22.74 22.74 0 0 0 12.19-10.5l21.26-38.87zM441.3 685.3c-3.28-2.74-8.28-6.56-16.6-12.84l-0.27-0.21c-5.15-3.88-12.75-9.62-15.64-12.13-2.91-6.12-13.23-28.41-27.47-59.36l61.85-29.67 51.2 2.59 14.17 36.36 7.97 21.24-19.65 35.97c-29.66 10.83-47.9 16.35-55.56 18.05z" p-id="17156"></path></svg>