<?xml version="1.0" standalone="no"?><!DOCTYPE svg PUBLIC "-//W3C//DTD SVG 1.1//EN" "http://www.w3.org/Graphics/SVG/1.1/DTD/svg11.dtd"><svg t="1713104407976" class="icon" viewBox="0 0 1186 1024" version="1.1" xmlns="http://www.w3.org/2000/svg" p-id="12689" xmlns:xlink="http://www.w3.org/1999/xlink" width="231.640625" height="200"><path d="M35.562306 392.171625s538.688325 172.254326 630.842113 596.266069h-390.426701c0.004742 0-47.790997-389.724939-240.415412-596.266069z" fill="#C5EDAB" p-id="12690"></path><path d="M29.786987 410.237277h-0.004741c5.286929 1.692766 529.375743 174.032441 618.091841 582.230812a18.966563 18.966563 0 0 1 18.535074-22.992216h-390.426701a18.966563 18.966563 0 1 0 17.392338 26.52948c1.920365-4.423951 3.442431-7.91854-9.231975-75.197681a1690.774267 1690.774267 0 0 0-37.933126-158.36606c-48.649234-166.431591-114.852023-295.356804-196.778092-383.1957a18.961821 18.961821 0 0 1-19.644618 30.991365z m246.190731 597.16698h390.426701a18.966563 18.966563 0 0 0 18.535074-22.992216c-38.758172-178.318885-162.586121-340.487741-358.098194-468.957756C180.168125 419.066212 46.942244 375.898314 41.342366 374.105974a18.966563 18.966563 0 0 0-19.649359 31.000847c186.460282 199.931283 234.990975 581.775615 235.455655 585.606861a18.966563 18.966563 0 1 1-0.137507-2.280729 18.971305 18.971305 0 0 0 18.966563 18.971304z" fill="#6E6E96" p-id="12691"></path><path d="M926.881714 35.562306S211.576753 286.869267 323.403609 988.437694h269.979542c-0.004742 0-79.408258-645.839923 333.498563-952.875388z" fill="#C5EDAB" p-id="12692"></path><path d="M920.594298 17.667354c-7.449118 2.617386-184.378702 65.847165-350.174913 217.238272-97.758408 89.261388-170.898217 190.642409-217.390004 301.326529-58.160966 138.474877-74.434277 291.620391-48.359995 455.192773a18.966563 18.966563 0 0 0 18.729481 15.979329h269.979543a18.961821 18.961821 0 0 0 18.824314-21.285225c-0.772887-6.344315-73.101876-638.57573 325.997286-935.340801a18.966563 18.966563 0 0 0-17.605712-33.110877z m-327.215888 951.803777H323.398867a18.966563 18.966563 0 0 1 18.729481 15.97933C234.047389 307.357897 926.160984 55.91817 933.169129 53.457258a18.966563 18.966563 0 0 1-17.60097-33.110877c-172.884964 128.555365-286.655893 337.353516-329.008229 603.819502-31.81641 200.177849-12.83088 359.890535-12.005834 366.590474a18.976046 18.976046 0 0 1 18.824314-21.285226z" fill="#6E6E96" p-id="12693"></path><path d="M421.840071 969.471131S488.028635 282.639723 910.134238 44.462366c0 0-389.890896 457.065721-389.890896 925.008765H421.840071z" fill="#6E6E96" opacity=".15" p-id="12694"></path><path d="M1123.73093 167.906241s-628.238953 95.82856-603.487588 820.531453h269.979543S710.819368 432.295389 1123.73093 167.906241z" fill="#C5EDAB" p-id="12695"></path><path d="M1120.871721 149.157794c-6.605106 1.005228-163.520224 26.003158-319.487014 142.035849-91.798165 68.293852-163.88533 154.032201-214.25578 254.825259-62.717683 125.50649-91.599016 274.569451-85.842664 443.068397a18.966563 18.966563 0 0 0 18.957079 18.316958h269.979543a18.95708 18.95708 0 0 0 18.772156-21.650331c-0.768146-5.43392-72.618228-547.299145 324.96835-801.873097a18.966563 18.966563 0 0 0-13.09167-34.723035z m-330.648836 820.313337h-269.979543a18.966563 18.966563 0 0 1 18.95708 18.316958C515.331003 288.979297 1101.634884 190.504901 1126.609106 186.654689a18.971305 18.971305 0 0 1-13.105895-34.723035c-173.36387 111.006552-287.480939 291.492367-330.018198 521.94085-31.958659 173.150496-12.868813 311.445191-12.039026 317.244217a18.961821 18.961821 0 0 1 18.776898-21.64559z" fill="#6E6E96" p-id="12696"></path><path d="M132.448252 35.562306s566.170875 275.275955 701.554202 952.875388H520.157993c-0.009483 0 92.300779-645.839923-387.709741-952.875388z" fill="#C5EDAB" p-id="12697"></path><path d="M124.155122 52.617988h-0.009483c5.580911 2.71696 559.39507 279.53869 691.255358 939.537153a18.966563 18.966563 0 0 1 18.601457-22.68401H520.157993a18.966563 18.966563 0 0 1 18.786381 21.598174c0.957811-6.813738 22.992216-168.968369-14.319755-369.179409-49.545404-265.892248-181.623808-474.164077-381.95339-602.302178a18.966563 18.966563 0 0 1-18.516107 33.03027z m395.998129 954.786269h313.844462a18.966563 18.966563 0 0 0 18.601456-22.684009C781.706898 629.90801 592.169291 386.225608 445.64785 244.279849 286.836075 90.418348 146.630499 21.370575 140.741381 18.506624a18.966563 18.966563 0 1 0-18.511365 33.035011c463.006997 296.158141 382.787918 908.327673 379.146338 934.24074a19.018721 19.018721 0 0 0 4.461884 15.102126 18.980788 18.980788 0 0 0 14.315013 6.519756z" fill="#6E6E96" p-id="12698"></path><path d="M1151.090198 471.793257s-538.693067 65.567409-630.846856 516.644437h366.95558S894.368283 576.109354 1151.090198 471.793257z" fill="#C5EDAB" p-id="12699"></path><path d="M1148.799985 452.964202c-5.633069 0.687538-139.608129 17.62942-287.025741 91.015794-196.692743 97.914882-321.222454 250.29225-360.10865 440.659644a18.966563 18.966563 0 0 0 18.58249 22.764617h366.95558a18.966563 18.966563 0 0 0 18.961821-18.63939c0.075866-3.992462 10.052278-401.062202 252.070365-499.403831a18.966563 18.966563 0 0 0-9.435865-36.396834z m-261.601063 516.506929h-366.95558a18.966563 18.966563 0 0 1 18.582491 22.764617c88.398409-432.688946 609.305581-500.973314 614.554577-501.613435a18.961821 18.961821 0 0 1-9.431123-36.396835c-110.527646 44.912821-193.269278 152.002778-239.28216 309.700267-34.206197 117.21336-36.358901 219.869883-36.434768 224.184776a18.966563 18.966563 0 0 1 18.966563-18.63939z" fill="#6E6E96" p-id="12700"></path><path d="M750.592251 969.471131s46.330572-364.433027 326.632667-463.504869c0 0-208.987817 219.343561-208.987817 482.144259M266.086655 142.974694s228.186721 118.887159 345.28154 600.765886l-94.695308 200.542955c0-0.004742 45.699934-562.614644-250.586232-801.308841zM728.714321 626.821202s111.494941-334.973213 354.342815-430.763839c0 0-133.320714 55.937136-250.278025 384.694057l-104.06479 60.062364M95.852268 435.733079s117.715974 40.119023 202.885326 305.897471l24.666015 227.845323H275.977718c0-0.004742-128.721322-493.197024-180.12545-533.742794z" fill="#6E6E96" opacity=".15" p-id="12701"></path></svg>